#Comment line ignore any data following # character 
#Hierarchical Translation and Rotation (.htr) file 
[Header]	
#Header keywords are followed by a single value 
FileType HTR		#Single word string
DataType HTRS		#Translation followed by rotation and scale data
FileVersion 1		#integer
NumSegments 84		#integer
NumFrames 2		#integer
DataFrameRate 30		#integer, data frame rate in this file
EulerRotationOrder ZYX
CalibrationUnits mm
RotationUnits Degrees
GlobalAxisofGravity Y
BoneLengthAxis Y
ScaleFactor 1.00
[SegmentNames&Hierarchy]
#CHILD	PARENT
MASTER GLOBAL
root MASTER
chest root
L_mid_tent01 root
R_mid_tent01 root
spine01 root
Bip01_Neck chest
L_humerus chest
R_humerus chest
weapon_bone chest
Bip01_Head Bip01_Neck
eye_left_bone Bip01_Head
eye_right_bone Bip01_Head
L_forearm L_humerus
L_front_hand L_forearm
L_weapon_bone L_forearm
L_front_hand01_01 L_front_hand
L_front_hand02_01 L_front_hand
L_front_hand03_01 L_front_hand
L_front_hand01_02 L_front_hand01_01
L_front_hand02_02 L_front_hand02_01
L_front_hand03_02 L_front_hand03_01
R_forearm R_humerus
R_front_hand R_forearm
R_weapon_bone R_forearm
R_front_hand01_01 R_front_hand
R_front_hand02_01 R_front_hand
R_front_hand03_01 R_front_hand
R_front_hand01_02 R_front_hand01_01
R_front_hand02_02 R_front_hand02_01
R_front_hand03_02 R_front_hand03_01
null_rope01_connect L_mid_tent01
Rope1_Seg01 null_rope01_connect
Rope1_Seg02 Rope1_Seg01
Rope1_Seg03 Rope1_Seg02
Rope1_Seg04 Rope1_Seg03
Rope1_Seg05 Rope1_Seg04
Rope1_Seg06 Rope1_Seg05
Rope1_Seg07 Rope1_Seg06
Rope1_Seg09 Rope1_Seg07
L_mid_hand01 Rope1_Seg09
L_mid_hand02 Rope1_Seg09
L_mid_hand03 Rope1_Seg09
null_rope02_connect R_mid_tent01
Rope2_Seg01 null_rope02_connect
Rope2_Seg02 Rope2_Seg01
Rope2_Seg03 Rope2_Seg02
Rope2_Seg04 Rope2_Seg03
Rope2_Seg05 Rope2_Seg04
Rope2_Seg06 Rope2_Seg05
Rope2_Seg07 Rope2_Seg06
Rope2_Seg09 Rope2_Seg07
R_mid_hand01 Rope2_Seg09
R_mid_hand02 Rope2_Seg09
R_mid_hand03 Rope2_Seg09
spine02 spine01
spine03 spine02
pelvis spine03
null_rope03_connect pelvis
null_rope04_connect pelvis
Rope3_Seg01 null_rope03_connect
Rope3_Seg02 Rope3_Seg01
Rope3_Seg03 Rope3_Seg02
Rope3_Seg04 Rope3_Seg03
Rope3_Seg05 Rope3_Seg04
Rope3_Seg06 Rope3_Seg05
Rope3_Seg07 Rope3_Seg06
Rope3_Seg08 Rope3_Seg07
Rope3_Seg09 Rope3_Seg08
R_rear_hand01 Rope3_Seg09
R_rear_hand02 Rope3_Seg09
R_rear_hand03 Rope3_Seg09
Rope4_Seg01 null_rope04_connect
Rope4_Seg02 Rope4_Seg01
Rope4_Seg03 Rope4_Seg02
Rope4_Seg04 Rope4_Seg03
Rope4_Seg05 Rope4_Seg04
Rope4_Seg06 Rope4_Seg05
Rope4_Seg07 Rope4_Seg06
Rope4_Seg08 Rope4_Seg07
Rope4_Seg09 Rope4_Seg08
L_rear_hand01 Rope4_Seg09
L_rear_hand02 Rope4_Seg09
L_rear_hand03 Rope4_Seg09
[BasePosition]
#SegmentName Tx, Ty, Tz, Rx, Ry, Rz, BoneLength
MASTER 0.000000 0.000000 0.000000 -90.000000 0.000000 0.000000 10.000000 
root 0.000000 0.000000 0.000000 0.000000 0.000000 0.000000 10.000000 
chest 0.000000 0.000000 0.000000 0.000000 0.000000 0.000000 10.000000 
L_mid_tent01 0.000000 0.000000 0.000000 0.000000 0.000000 0.000000 10.000000 
R_mid_tent01 0.000000 0.000000 0.000000 0.000000 0.000000 0.000000 10.000000 
spine01 0.000000 0.000000 0.000000 0.000000 0.000000 0.000000 10.000000 
Bip01_Neck 0.000000 0.000000 0.000000 0.000000 0.000000 0.000000 10.000000 
L_humerus 0.000000 0.000000 0.000000 0.000000 0.000000 0.000000 10.000000 
R_humerus 0.000000 0.000000 0.000000 0.000000 0.000000 0.000000 10.000000 
weapon_bone 0.000000 0.000000 0.000000 0.000000 0.000000 0.000000 10.000000 
Bip01_Head 0.000000 0.000000 0.000000 0.000000 0.000000 0.000000 10.000000 
eye_left_bone 0.000000 0.000000 0.000000 0.000000 0.000000 0.000000 10.000000 
eye_right_bone 0.000000 0.000000 0.000000 0.000000 0.000000 0.000000 10.000000 
L_forearm 0.000000 0.000000 0.000000 0.000000 0.000000 0.000000 10.000000 
L_front_hand 0.000000 0.000000 0.000000 0.000000 0.000000 0.000000 10.000000 
L_weapon_bone 0.000000 0.000000 0.000000 0.000000 0.000000 0.000000 10.000000 
L_front_hand01_01 0.000000 0.000000 0.000000 0.000000 0.000000 0.000000 10.000000 
L_front_hand02_01 0.000000 0.000000 0.000000 0.000000 0.000000 0.000000 10.000000 
L_front_hand03_01 0.000000 0.000000 0.000000 0.000000 0.000000 0.000000 10.000000 
L_front_hand01_02 0.000000 0.000000 0.000000 0.000000 0.000000 0.000000 10.000000 
L_front_hand02_02 0.000000 0.000000 0.000000 0.000000 0.000000 0.000000 10.000000 
L_front_hand03_02 0.000000 0.000000 0.000000 0.000000 0.000000 0.000000 10.000000 
R_forearm 0.000000 0.000000 0.000000 0.000000 0.000000 0.000000 10.000000 
R_front_hand 0.000000 0.000000 0.000000 0.000000 0.000000 0.000000 10.000000 
R_weapon_bone 0.000000 0.000000 0.000000 0.000000 0.000000 0.000000 10.000000 
R_front_hand01_01 0.000000 0.000000 0.000000 0.000000 0.000000 0.000000 10.000000 
R_front_hand02_01 0.000000 0.000000 0.000000 0.000000 0.000000 0.000000 10.000000 
R_front_hand03_01 0.000000 0.000000 0.000000 0.000000 0.000000 0.000000 10.000000 
R_front_hand01_02 0.000000 0.000000 0.000000 0.000000 0.000000 0.000000 10.000000 
R_front_hand02_02 0.000000 0.000000 0.000000 0.000000 0.000000 0.000000 10.000000 
R_front_hand03_02 0.000000 0.000000 0.000000 0.000000 0.000000 0.000000 10.000000 
null_rope01_connect 0.000000 0.000000 0.000000 0.000000 0.000000 0.000000 10.000000 
Rope1_Seg01 0.000000 0.000000 0.000000 0.000000 0.000000 0.000000 10.000000 
Rope1_Seg02 0.000000 0.000000 0.000000 0.000000 0.000000 0.000000 10.000000 
Rope1_Seg03 0.000000 0.000000 0.000000 0.000000 0.000000 0.000000 10.000000 
Rope1_Seg04 0.000000 0.000000 0.000000 0.000000 0.000000 0.000000 10.000000 
Rope1_Seg05 0.000000 0.000000 0.000000 0.000000 0.000000 0.000000 10.000000 
Rope1_Seg06 0.000000 0.000000 0.000000 0.000000 0.000000 0.000000 10.000000 
Rope1_Seg07 0.000000 0.000000 0.000000 0.000000 0.000000 0.000000 10.000000 
Rope1_Seg09 0.000000 0.000000 0.000000 0.000000 0.000000 0.000000 10.000000 
L_mid_hand01 0.000000 0.000000 0.000000 0.000000 0.000000 0.000000 10.000000 
L_mid_hand02 0.000000 0.000000 0.000000 0.000000 0.000000 0.000000 10.000000 
L_mid_hand03 0.000000 0.000000 0.000000 0.000000 0.000000 0.000000 10.000000 
null_rope02_connect 0.000000 0.000000 0.000000 0.000000 0.000000 0.000000 10.000000 
Rope2_Seg01 0.000000 0.000000 0.000000 0.000000 0.000000 0.000000 10.000000 
Rope2_Seg02 0.000000 0.000000 0.000000 0.000000 0.000000 0.000000 10.000000 
Rope2_Seg03 0.000000 0.000000 0.000000 0.000000 0.000000 0.000000 10.000000 
Rope2_Seg04 0.000000 0.000000 0.000000 0.000000 0.000000 0.000000 10.000000 
Rope2_Seg05 0.000000 0.000000 0.000000 0.000000 0.000000 0.000000 10.000000 
Rope2_Seg06 0.000000 0.000000 0.000000 0.000000 0.000000 0.000000 10.000000 
Rope2_Seg07 0.000000 0.000000 0.000000 0.000000 0.000000 0.000000 10.000000 
Rope2_Seg09 0.000000 0.000000 0.000000 0.000000 0.000000 0.000000 10.000000 
R_mid_hand01 0.000000 0.000000 0.000000 0.000000 0.000000 0.000000 10.000000 
R_mid_hand02 0.000000 0.000000 0.000000 0.000000 0.000000 0.000000 10.000000 
R_mid_hand03 0.000000 0.000000 0.000000 0.000000 0.000000 0.000000 10.000000 
spine02 0.000000 0.000000 0.000000 0.000000 0.000000 0.000000 10.000000 
spine03 0.000000 0.000000 0.000000 0.000000 0.000000 0.000000 10.000000 
pelvis 0.000000 0.000000 0.000000 0.000000 0.000000 0.000000 10.000000 
null_rope03_connect 0.000000 0.000000 0.000000 0.000000 0.000000 0.000000 10.000000 
null_rope04_connect 0.000000 0.000000 0.000000 0.000000 0.000000 0.000000 10.000000 
Rope3_Seg01 0.000000 0.000000 0.000000 0.000000 0.000000 0.000000 10.000000 
Rope3_Seg02 0.000000 0.000000 0.000000 0.000000 0.000000 0.000000 10.000000 
Rope3_Seg03 0.000000 0.000000 0.000000 0.000000 0.000000 0.000000 10.000000 
Rope3_Seg04 0.000000 0.000000 0.000000 0.000000 0.000000 0.000000 10.000000 
Rope3_Seg05 0.000000 0.000000 0.000000 0.000000 0.000000 0.000000 10.000000 
Rope3_Seg06 0.000000 0.000000 0.000000 0.000000 0.000000 0.000000 10.000000 
Rope3_Seg07 0.000000 0.000000 0.000000 0.000000 0.000000 0.000000 10.000000 
Rope3_Seg08 0.000000 0.000000 0.000000 0.000000 0.000000 0.000000 10.000000 
Rope3_Seg09 0.000000 0.000000 0.000000 0.000000 0.000000 0.000000 10.000000 
R_rear_hand01 0.000000 0.000000 0.000000 0.000000 0.000000 0.000000 10.000000 
R_rear_hand02 0.000000 0.000000 0.000000 0.000000 0.000000 0.000000 10.000000 
R_rear_hand03 0.000000 0.000000 0.000000 0.000000 0.000000 0.000000 10.000000 
Rope4_Seg01 0.000000 0.000000 0.000000 0.000000 0.000000 0.000000 10.000000 
Rope4_Seg02 0.000000 0.000000 0.000000 0.000000 0.000000 0.000000 10.000000 
Rope4_Seg03 0.000000 0.000000 0.000000 0.000000 0.000000 0.000000 10.000000 
Rope4_Seg04 0.000000 0.000000 0.000000 0.000000 0.000000 0.000000 10.000000 
Rope4_Seg05 0.000000 0.000000 0.000000 0.000000 0.000000 0.000000 10.000000 
Rope4_Seg06 0.000000 0.000000 0.000000 0.000000 0.000000 0.000000 10.000000 
Rope4_Seg07 0.000000 0.000000 0.000000 0.000000 0.000000 0.000000 10.000000 
Rope4_Seg08 0.000000 0.000000 0.000000 0.000000 0.000000 0.000000 10.000000 
Rope4_Seg09 0.000000 0.000000 0.000000 0.000000 0.000000 0.000000 10.000000 
L_rear_hand01 0.000000 0.000000 0.000000 0.000000 0.000000 0.000000 10.000000 
L_rear_hand02 0.000000 0.000000 0.000000 0.000000 0.000000 0.000000 10.000000 
L_rear_hand03 0.000000 0.000000 0.000000 0.000000 0.000000 0.000000 10.000000 
#Beginning of Data. Separated by tabs
#Fr	Tx	Ty	Tz	Rx	Ry	Rz	SF
[MASTER]
22 0.000000 0.000000 0.000000 0.001660 0.001660 0.001660 0.000000
23 0.000000 0.000000 0.000000 0.001660 0.001660 0.001660 0.000000
[root]
22 -5.252189 -62.822109 550.779663 -85.483154 -4.362330 -90.697212 554.375732
23 -8.968210 -62.822109 562.108154 -85.510117 -4.440827 -90.672668 565.678894
[chest]
22 -80.559875 5.720159 -29.193153 2.769973 -0.040423 156.229462 85.876968
23 -81.037094 0.913793 -25.668640 2.884127 1.090647 156.978729 85.010147
[L_mid_tent01]
22 27.282709 22.187115 -249.810135 -1.500697 14.363770 98.561890 252.273102
23 27.297338 22.178720 -249.904114 0.774413 12.260273 99.891846 252.367004
[R_mid_tent01]
22 23.228794 24.509907 226.238495 152.257217 -27.703186 95.434502 228.744751
23 23.228794 24.509907 226.238495 157.416092 -28.683496 93.028526 228.744751
[spine01]
22 -0.361383 -0.195265 0.000000 -0.000001 -0.000007 22.052340 0.410763
23 -0.361383 -0.195265 0.000000 -0.000001 -0.000007 22.052340 0.410763
[Bip01_Neck]
22 165.484543 71.581718 0.000119 175.896118 1.177290 24.871183 180.302734
23 165.484543 71.581718 0.000119 175.896118 1.177290 24.871183 180.302734
[L_humerus]
22 -13.983130 -135.272980 -120.471481 26.183029 73.231827 112.155693 181.680161
23 -13.983130 -135.272980 -120.471481 35.623844 70.728577 128.235229 181.680161
[R_humerus]
22 -13.983309 -135.273102 125.287651 -3.700648 -71.386276 105.845100 184.909012
23 -13.983309 -135.273102 125.287651 -15.967983 -68.431129 124.376640 184.909012
[weapon_bone]
22 235.964890 -300.705902 0.000000 0.000000 -89.951546 -128.212341 382.234833
23 235.964890 -300.705902 0.000000 0.000000 -89.951546 -128.212341 382.234833
[Bip01_Head]
22 178.993362 151.174911 3.769828 7.401740 3.082757 -29.105568 234.321762
23 186.568771 150.758347 5.265330 6.926225 3.320337 -27.196112 239.924377
[eye_left_bone]
22 -24.626970 125.451866 -64.772606 0.000000 -90.000000 -99.840431 143.318359
23 -24.626970 125.451866 -64.772606 0.000000 -90.000000 -99.840431 143.318359
[eye_right_bone]
22 -24.626970 125.451866 64.327362 0.000000 -89.960434 80.159386 143.117676
23 -24.626970 125.451866 64.327362 0.000000 -89.960434 80.159386 143.117676
[L_forearm]
22 322.776093 0.000000 -0.000119 0.000312 -0.002326 -105.294792 322.776093
23 322.776093 0.000000 -0.000119 0.000248 -0.002334 -102.131584 322.776093
[L_front_hand]
22 241.149185 -0.042021 -3.300071 156.720932 2.399876 2.340939 241.171753
23 241.149185 -0.042021 -3.300071 148.412186 3.502380 0.157427 241.171753
[L_weapon_bone]
22 156.183838 0.000000 0.000000 0.000014 0.000007 0.000001 156.183838
23 156.183838 0.000000 0.000000 0.000014 0.000007 0.000001 156.183838
[L_front_hand01_01]
22 86.095154 20.947098 -0.655860 -0.366594 -0.477154 75.385574 88.609184
23 86.095154 20.947098 -0.655860 -0.366594 -0.477154 75.385574 88.609184
[L_front_hand02_01]
22 86.935165 -11.437475 24.513514 154.399811 -59.883835 -61.369587 91.046425
23 86.935165 -11.437475 24.513514 154.399796 -59.883835 -61.369587 91.046425
[L_front_hand03_01]
22 86.637497 -14.123976 -20.424902 -153.913849 58.118122 -62.702866 90.126129
23 86.637497 -14.123976 -20.424902 -153.913849 58.118122 -62.702850 90.126129
[L_front_hand01_02]
22 71.020905 -0.000179 0.000030 0.001048 0.002100 -36.951614 71.020905
23 71.020905 -0.000179 0.000030 0.000861 0.002184 -46.949654 71.020905
[L_front_hand02_02]
22 71.020927 -0.000119 0.000060 0.001048 0.002100 -36.951614 71.020927
23 71.020927 -0.000119 0.000060 0.000861 0.002184 -46.949654 71.020927
[L_front_hand03_02]
22 71.020905 -0.000060 0.000060 0.001048 0.002100 -36.951614 71.020905
23 71.020905 -0.000060 0.000060 0.000861 0.002184 -46.949654 71.020905
[R_forearm]
22 322.776428 -0.000060 0.000030 0.209785 -0.006355 -89.066750 322.776428
23 322.776428 -0.000060 0.000030 0.209264 -0.019304 -85.809380 322.776428
[R_front_hand]
22 238.847015 -0.006795 2.210259 24.685747 -5.432220 -1.649028 238.857239
23 238.847015 -0.006795 2.210259 33.664539 -7.101407 -4.851359 238.857239
[R_weapon_bone]
22 155.664093 0.002503 -0.000030 0.003487 0.001180 -90.988930 155.664078
23 155.664093 0.002503 -0.000030 0.003487 0.001180 -90.988930 155.664078
[R_front_hand01_01]
22 87.624611 14.231146 22.918642 -154.633499 -59.950619 61.746044 91.683487
23 87.624611 14.231146 22.918642 -154.633484 -59.950619 61.746037 91.683487
[R_front_hand02_01]
22 89.356956 14.367283 -19.491137 154.595840 58.306175 63.741730 92.579636
23 89.356956 14.367283 -19.491137 154.595840 58.306175 63.741730 92.579636
[R_front_hand03_01]
22 87.286232 -22.307278 -0.143439 0.162155 -0.423168 -75.767921 90.091743
23 87.286232 -22.307278 -0.143439 0.162155 -0.423168 -75.767906 90.091743
[R_front_hand01_02]
22 71.020905 0.000060 0.000119 0.002100 0.001048 36.949902 71.020905
23 71.020905 0.000060 0.000119 0.002184 0.000861 46.953270 71.020905
[R_front_hand02_02]
22 71.020844 -0.000030 -0.000119 0.002100 0.001048 36.949902 71.020836
23 71.020844 -0.000030 -0.000119 0.002184 0.000861 46.953270 71.020836
[R_front_hand03_02]
22 71.020905 0.000000 0.000030 0.002100 0.001048 36.949902 71.020905
23 71.020905 0.000000 0.000030 0.002184 0.000861 46.953270 71.020905
[null_rope01_connect]
22 328.732483 0.000000 -0.000238 167.226059 -80.047783 -171.526123 328.732483
23 328.732483 0.000000 -0.000238 179.554306 -82.195564 175.081848 328.732483
[Rope1_Seg01]
22 -0.000025 0.000011 0.000046 123.480263 -25.922930 127.772827 0.000053
23 -0.000024 0.000010 0.000041 122.797005 -25.185350 128.744202 0.000048
[Rope1_Seg02]
22 139.999863 -0.000179 0.000000 -1.119759 -1.720369 -1.084612 139.999863
23 139.999863 -0.000179 0.000000 -1.046118 -1.650472 -1.091287 139.999863
[Rope1_Seg03]
22 139.999924 0.000060 -0.000060 -1.659706 -2.490688 -1.639475 139.999924
23 139.999924 0.000060 -0.000060 -1.551843 -2.400235 -1.652891 139.999924
[Rope1_Seg04]
22 139.999924 -0.000060 -0.000119 -2.769584 -4.046426 -2.836281 139.999924
23 139.999924 -0.000060 -0.000119 -2.598086 -3.923992 -2.869668 139.999924
[Rope1_Seg05]
22 139.999832 0.000119 -0.000060 -5.882273 -9.786296 -3.406682 139.999832
23 139.999832 0.000119 -0.000060 -5.522024 -9.590764 -3.614976 139.999832
[Rope1_Seg06]
22 139.999954 0.000119 -0.000060 -11.297736 -17.560360 -32.120853 139.999954
23 139.999954 0.000119 -0.000060 -10.268359 -18.474525 -34.057053 139.999954
[Rope1_Seg07]
22 139.999985 0.000060 0.000000 1.468112 -0.633673 -51.670422 139.999985
23 139.999985 0.000060 0.000000 2.521303 -1.663848 -49.442287 139.999985
[Rope1_Seg09]
22 121.602913 0.000119 -0.000089 -89.793175 -1.359789 0.847147 121.602913
23 121.602913 0.000119 -0.000089 -89.793175 -1.359789 0.847147 121.602913
[L_mid_hand01]
22 103.859421 1.038730 8.195221 106.243362 -27.610722 -8.221345 104.187431
23 103.859421 1.038730 8.195221 106.243370 -27.610729 -8.221344 104.187431
[L_mid_hand02]
22 105.572853 -4.139662 -10.864139 -140.972244 23.403244 -25.511135 106.211075
23 105.572853 -4.139662 -10.864139 -140.972244 23.403244 -25.511135 106.211075
[L_mid_hand03]
22 104.641464 17.579376 -3.913581 -16.709753 8.664801 30.543972 106.179977
23 104.641464 17.579376 -3.913581 -16.709753 8.664801 30.543972 106.179977
[null_rope02_connect]
22 328.732849 0.000179 -0.000119 -136.657104 48.670864 36.168243 328.732849
23 328.732849 0.000179 -0.000119 -141.745071 50.889236 29.907278 328.732849
[Rope2_Seg01]
22 -0.000025 -0.000066 0.000000 -60.348328 -33.298996 68.408447 0.000070
23 -0.000031 -0.000074 0.000000 -58.519859 -30.405191 67.643883 0.000080
[Rope2_Seg02]
22 139.999741 -0.000060 -0.000119 3.418028 3.854158 5.376174 139.999756
23 139.999741 -0.000060 -0.000119 2.894125 3.487644 4.718881 139.999756
[Rope2_Seg03]
22 140.000107 0.000030 0.000000 4.854868 6.338747 7.901228 140.000107
23 140.000107 0.000030 0.000000 4.168062 5.713456 7.017115 140.000107
[Rope2_Seg04]
22 139.999802 0.000000 -0.000060 6.469222 12.128647 11.335226 139.999802
23 139.999802 0.000000 -0.000060 5.922409 11.328382 10.635140 139.999802
[Rope2_Seg05]
22 139.999985 -0.000060 0.000119 4.880986 14.182184 12.337147 139.999985
23 139.999985 -0.000060 0.000119 5.185130 15.042640 13.075084 139.999985
[Rope2_Seg06]
22 139.999893 -0.000030 -0.000119 7.270400 19.634687 30.094254 139.999893
23 139.999893 -0.000030 -0.000119 7.130815 18.768532 30.654583 139.999893
[Rope2_Seg07]
22 139.999893 0.000060 -0.000060 4.052252 24.157988 35.932804 139.999893
23 139.999893 0.000060 -0.000060 4.155837 22.004950 34.622841 139.999893
[Rope2_Seg09]
22 121.338966 0.000089 -0.000060 33.793236 -1.359788 -0.847141 121.338966
23 121.338966 0.000089 -0.000060 33.793236 -1.359788 -0.847141 121.338966
[R_mid_hand01]
22 104.680779 11.144459 -10.335981 -42.750736 22.953913 25.606688 105.778534
23 104.680779 11.144459 -10.335981 -42.750740 22.953909 25.606682 105.778534
[R_mid_hand02]
22 104.070427 2.443552 8.231699 73.485046 -29.224546 8.771015 104.424065
23 104.070427 2.443552 8.231699 73.485046 -29.224543 8.771014 104.424065
[R_mid_hand03]
22 106.028137 -11.221827 -5.996406 -167.274673 9.466213 -33.359016 106.788818
23 106.028137 -11.221827 -5.996406 -167.274673 9.466209 -33.359005 106.788818
[spine02]
22 129.756927 0.001550 0.000119 -0.249164 -4.076988 -4.360343 129.756927
23 129.756927 0.001550 0.000119 -0.250772 -4.067024 -4.325632 129.756927
[spine03]
22 78.620415 0.086081 -4.834546 0.365310 4.429864 -5.068920 78.768967
23 78.618217 0.086460 -4.855965 0.368262 4.335381 -4.969869 78.768097
[pelvis]
22 169.435242 0.051022 0.000000 0.004299 0.174829 -1.511758 169.435257
23 169.435242 0.051022 0.000000 0.001087 0.041245 -1.590905 169.435257
[null_rope03_connect]
22 -1.257226 -2.466202 137.391083 -10.820324 -85.000801 94.082405 137.418976
23 -1.257226 -2.466202 137.391083 -8.075367 -85.052170 91.363518 137.418976
[null_rope04_connect]
22 -1.259640 -2.480268 -137.844437 -10.820324 -85.000801 94.082405 137.872513
23 -1.259640 -2.480268 -137.844437 -8.075367 -85.052170 91.363518 137.872513
[Rope3_Seg01]
22 0.000000 0.000000 0.000000 -149.327515 -43.956062 -56.614059 0.000000
23 0.000000 0.000000 0.000000 -150.953323 -43.685349 -54.141239 0.000000
[Rope3_Seg02]
22 139.999924 -0.000119 0.000060 5.946785 -11.359460 8.027551 139.999924
23 139.999924 -0.000119 0.000060 6.436370 -11.243411 8.525599 139.999924
[Rope3_Seg03]
22 139.999924 -0.000119 0.000119 6.864257 -15.901983 14.607392 139.999924
23 139.999924 -0.000119 0.000119 7.118035 -15.397862 15.429521 139.999924
[Rope3_Seg04]
22 139.999924 0.000119 0.000000 4.112547 -14.304343 17.520254 139.999924
23 139.999924 0.000119 0.000000 3.847626 -13.082598 18.387932 139.999924
[Rope3_Seg05]
22 139.999924 -0.000238 0.000060 1.497914 -8.415539 13.262776 139.999924
23 139.999924 -0.000238 0.000060 1.177111 -7.859041 13.272077 139.999924
[Rope3_Seg06]
22 139.999893 -0.000119 -0.000060 -0.988217 -10.091643 19.017496 139.999893
23 139.999893 -0.000119 -0.000060 -1.240144 -10.131930 18.110529 139.999893
[Rope3_Seg07]
22 139.999771 0.000060 -0.000119 -5.375882 -11.052879 21.698339 139.999771
23 139.999771 0.000060 -0.000119 -5.548523 -11.622061 21.243814 139.999771
[Rope3_Seg08]
22 139.999985 -0.000060 0.000000 -3.801165 -6.555815 10.841585 139.999985
23 139.999985 -0.000060 0.000000 -3.820907 -6.854640 10.774750 139.999985
[Rope3_Seg09]
22 90.185997 -0.000179 -0.000060 89.793228 -1.359877 -0.847183 90.185997
23 90.185997 -0.000179 -0.000060 89.793228 -1.359877 -0.847183 90.185997
[R_rear_hand01]
22 103.366196 -6.073594 -10.757982 -161.551193 16.666374 -30.088671 104.101845
23 103.366196 -6.073594 -10.757982 -161.551193 16.666374 -30.088671 104.101845
[R_rear_hand02]
22 100.509819 12.039542 -7.992327 -34.280552 19.289745 28.875523 101.543350
23 100.509819 12.039542 -7.992327 -34.280552 19.289745 28.875523 101.543350
[R_rear_hand03]
22 101.539970 5.215704 5.435467 83.366440 -30.933914 7.284830 101.819031
23 101.539970 5.215704 5.435467 83.366440 -30.933914 7.284830 101.819031
[Rope4_Seg01]
22 -0.000014 -0.000061 -0.000080 88.207321 -46.559032 -148.752472 0.000102
23 -0.000016 -0.000058 -0.000084 87.386383 -46.512924 -147.964066 0.000104
[Rope4_Seg02]
22 139.999985 0.000060 0.000119 -8.641408 4.568107 -8.008358 139.999985
23 139.999985 0.000060 0.000119 -8.416280 4.372421 -7.963385 139.999985
[Rope4_Seg03]
22 139.999924 0.000000 -0.000238 -15.645637 11.234009 -14.641168 139.999924
23 139.999924 0.000000 -0.000238 -15.676555 10.948516 -14.869529 139.999924
[Rope4_Seg04]
22 139.999985 0.000000 0.000119 -20.498465 28.939306 -22.950901 139.999985
23 139.999985 0.000000 0.000119 -21.598572 29.107470 -24.450592 139.999985
[Rope4_Seg05]
22 139.999802 -0.000060 -0.000119 -3.927663 25.280012 -9.966684 139.999802
23 139.999802 -0.000060 -0.000119 -4.172487 25.907141 -10.674156 139.999802
[Rope4_Seg06]
22 139.999924 0.000000 0.000060 0.867355 10.101411 -7.364629 139.999924
23 139.999924 0.000000 0.000060 0.916025 9.819636 -6.888503 139.999924
[Rope4_Seg07]
22 139.999802 0.000000 0.000000 2.287874 10.014838 -15.032483 139.999802
23 139.999802 0.000000 0.000000 2.249699 9.097910 -13.313086 139.999802
[Rope4_Seg08]
22 139.999924 0.000000 0.000119 1.356588 10.842173 -14.190542 139.999924
23 139.999924 0.000000 0.000119 1.352521 10.439386 -13.230414 139.999924
[Rope4_Seg09]
22 90.185791 0.000060 0.000060 -135.617828 2.228885 0.850567 90.185791
23 90.185791 0.000060 0.000060 -135.617828 2.228885 0.850567 90.185791
[L_rear_hand01]
22 101.696655 -8.392275 -7.654577 -35.093445 -17.603584 153.690552 102.329041
23 101.696655 -8.392275 -7.654577 -35.093697 -17.603439 153.690536 102.329041
[L_rear_hand02]
22 102.726799 -1.568258 5.773216 83.558838 27.991446 173.102142 102.900848
23 102.726799 -1.568258 5.773216 83.558792 27.991291 173.101990 102.900848
[L_rear_hand03]
22 104.552910 9.721220 -10.420293 -160.739044 -15.709782 -152.830963 105.519653
23 104.552910 9.721220 -10.420293 -160.739014 -15.709746 -152.831161 105.519653
